<?xml version="1.0" encoding="UTF-8"?><svg id="Layer_2" xmlns="http://www.w3.org/2000/svg" width="463.4" height="579.45" viewBox="0 0 463.4 579.45"><g id="Map"><polyline points="0 307.38 .49 311.08 5.43 317.99 14.07 325.4 32.83 337 51.1 356.51 61.23 362.43 69.37 365.15 72.34 364.65 74.56 367.62 75.3 373.3 78.51 376.75 95.3 387.75 95.3 387.86 115.54 404.65 164.67 443.66 185.41 460.94 209.11 485.666 220.3117 496 254.5191 527.11 276.26 540.685 294.53 549.4231 311.32 555.1998 343.91 561.7786 350.33 563.0746 369.09 566.8616 388.5947 570.7989 388.6052 570.8015 393.6456 579.45 385.88 542.17 384.15 539.94 385.63 522.17 391.31 510.32 396.5 505.63 399.21 505.87 403.9 489.58 409.58 483.16 414.52 466.37 409.09 464.89 405.63 465.63 409.09 464.15 414.77 465.88 426.62 431.31 423.41 416.99 436.99 392.06 435.5 386.13 438.47 380.95 442.17 379.96 457.97 350.58 463.4 330.09 456 328.86 441.92 320.46 436.99 309.35 433.78 283.43 426.86 274.79 406.62 274.29 397.98 271.58 386.62 262.69 380.94 261.46 362.18 265.65 353.79 262.69 328.85 274.54 313.79 274.29 311.81 276.76 309.35 277.01 302.93 274.54 292.06 265.41 282.19 264.17 291.32 264.42 296.75 267.13 304.9 274.79 310.33 276.52 312.56 274.29 309.35 272.07 304.16 262.2 298.73 257.26 291.08 256.02 283.92 252.32 275.52 251.09 269.84 246.89 263.92 235.78 257.5 208.62 249.35 220.72 244.17 237.01 239.97 244.91 237.26 245.41 235.77 239.98 229.35 237.26 230.1 235.53 234.79 235.04 236.02 233.56 236.02 229.36 233.55 225.9 230.1 224.42 225.9 225.16 223.18 226.65 221.45 230.35 222.2 235.29 229.11 247.14 231.82 255.28 239.48 257.01 240.22 263.68 245.16 264.42 251.57 287.87 249.35 291.33 250.09 294.54 243.92 298 249.6 294.54 248.86 291.08 251.08 288.61 244.17 264.42 239.48 263.93 239.48 257.75 231.08 255.78 219.48 232.32 222.69 224.67 227.87 222.45 232.07 222.45 237.75 229.11 236.51 235.53 233.06 237.76 236.51 239.48 238 244.17 239.23 243.43 260.46 191.09 270.58 157.52 269.35 151.84 267.13 151.34 258.98 155.3 250.34 155.3 224.66 148.63 212.81 141.22 198 126.16 196.52 125.42 196.52 125.42 185.66 119.99 173.31 117.03 148.13 116.78 121.47 108.63 110.11 108.88 101.22 111.35 95.3 114.07 95.3 114.08 85.67 118.51 78.01 126.16 70.85 125.92 67.15 128.14 43.94 179.74 38.26 215.04 34.07 229.61 29.87 237.76 28.88 245.9 26.41 247.63 18.51 268.62 9.87 285.16 9.87 289.6 7.4 291.33 0 307.38" fill="#142326"/><polyline points="272.31 269.6 272.56 267.13 276.51 264.17 279.23 264.17 275.03 265.41 272.81 269.36 283.67 280.71 277 275.53 272.31 269.6" fill="#142326"/><polyline points="139.98 106.41 140.72 109.37 145.66 111.1 172.32 112.09 191.09 118.02 203.43 125.17 224.66 143.94 252.32 151.1 267.38 147.39 268.12 138.26 272.81 132.83 276.76 133.32 291.82 142.21 290.34 132.09 291.32 126.9 295.03 127.4 298.73 134.56 301.69 135.3 306.63 130.85 307.62 123.69 308.61 123.45 307.62 132.58 302.19 136.78 297.5 136.04 294.29 129.87 292.06 128.88 294.29 140.24 291.82 143.69 286.88 142.46 275.28 134.56 270.58 136.28 270.34 147.64 273.55 151.84 274.04 155.54 266.14 187.39 259.72 205.91 264.91 235.04 269.6 245.16 274.78 249.85 284.16 251.58 291.82 255.53 298.73 251.09 307.62 250.59 313.05 243.93 312.31 247.38 306.38 252.07 298.24 252.32 295.52 254.3 304.66 261.46 308.85 270.1 312.31 273.06 328.11 273.31 354.53 261.21 355.76 254.3 365.14 244.91 366.38 239.73 365.64 234.79 360.45 225.16 354.77 224.67 349.84 210.6 339.71 193.56 337.74 161.71 338.48 152.09 340.45 147.15 331.32 146.9 328.85 144.19 328.11 138.26 326.38 138.01 326.13 135.3 331.07 132.83 323.67 133.08 321.69 134.8 317 131.84 316.01 117.52 318.48 109.62 320.46 109.13 322.18 111.35 319.22 126.66 319.72 131.35 325.39 130.85 325.89 132.83 326.13 130.11 329.34 127.89 333.54 126.66 336.75 128.38 334.78 129.62 335.02 135.05 332.31 136.78 333.05 140.24 338.48 140.73 340.95 135.54 340.7 131.59 349.59 128.88 350.08 126.41 347.12 123.94 346.63 125.67 343.91 124.93 340.21 119.99 340.7 113.32 338.48 110.61 341.19 105.18 338.97 97.28 339.96 96.29 339.22 94.81 336.75 94.56 336.01 92.09 336.75 88.39 341.94 88.88 340.21 82.96 337.49 80.74 333.05 83.7 328.36 82.71 326.38 79.01 323.42 79.99 320.95 76.29 313.05 76.04 310.58 81.97 307.86 82.96 302.68 79.25 303.17 77.03 307.12 74.56 308.36 70.12 315.52 75.55 336.26 73.58 337.98 62.96 342.43 60.24 348.11 59.26 347.12 55.06 341.44 51.85 342.18 49.87 350.33 45.18 356.5 43.7 356.5 38.52 358.48 34.81 361.69 34.32 365.88 36.79 377.73 24.94 381.19 23.95 382.18 20.99 382.15 20.83 382.18 20.74 380.94 14.32 374.77 11.85 375.76 8.89 373.54 11.36 365.64 10.13 365.64 7.41 363.41 4.94 357.98 6.18 325.89 1.24 312.8 4.69 303.91 2.72 305.15 3.46 304.66 5.93 302.43 6.42 300.21 13.34 297.74 15.06 297 21.48 298.98 26.42 304.16 30.62 307.12 30.86 307.62 35.8 296.51 28.89 289.1 20.99 287.87 13.34 296.01 12.1 299.22 5.19 295.27 .5 292.31 0 285.89 4.94 274.54 23.46 269.84 26.67 263.92 38.27 260.46 39.75 236.51 60.98 212.57 75.06 196.52 81.93 196.52 81.72 178 89.87 163.93 98.26 139.98 106.41" fill="#142326"/><polyline points="313.05 243.93 311.32 241.95 302.93 241.46 294.53 238.5 296.51 226.65 300.71 225.16 308.11 218.99 309.35 219.24 310.09 223.19 309.84 218.99 317.99 217.76 318.23 214.79 324.65 214.79 325.64 220.23 322.18 224.18 317.49 223.68 311.32 225.9 310.09 223.68 300.46 232.08 302.19 237.01 310.33 238.25 313.79 241.71 313.05 243.93" fill="#142326"/><g id="Rohingya-IDP-sites-kml-polygons-Outline"><path id="Baw-Du-Pha-1-1" d="M141.96,376.75l6.91,3.21,3.33-6.17-8.89-5.43-.74,1.11.74,4.32-1.35,2.96Z" fill="#bf9788"/><path id="Baw-Du-Pha-2-1" d="M141.46,368.73l-2.47,2.47-2.71.12-11.36-4.2-2.84-1.72,3.95-4.08,15.43,7.41Z" fill="#bf9788"/><path id="Say-Tha-Mar-Gyi-1" d="M87.02,308.98l-8.14-11.48,2.22-2.1-6.79-9.13,2.72-1.98,4.19,3.71,12.35,17.65-6.55,3.33Z" fill="#bf9788"/><path id="Ohn-Taw-Chay-1" d="M29.75,284.54l1.85-1.36,3.21,2.72,2.47-.99,4.07,2.22,3.7,7.78-3.21,2.1-12.09-12.47Z" fill="#bf9788"/><path id="Ohn-Taw-Gyi-South-1" d="M92.83,338.24l13.95,10.98,11.97,6.67-6.17,2.59-10.37-8.14.74-1.49-5.93-4.56h-2.09l-3.34-3.21,1.24-2.84Z" fill="#bf9788"/><path id="Ohh-Taw-Gyi-North-1" d="M119.49,355.27l-21.11-13.58v-1.97l-7.4-4.2,1.72-1.23,7.16,1.6,7.04,6.92,1.85-2.23.12-2.47,1.98-1.48,11.85,7.9,2.96,4.45-1.36,1.73-7.4-5.68-.99.61-2.1-1.35-1.73,2.34.74,2.72,2.35,1.36,3.83.74-.62,1.23,2.1,1.61-.99.98Z" fill="#bf9788"/><path id="Khaung-Doke-Khar-1-1" d="M171.58,364.78l5.19-2.59,4.2,4.93-2.6,1.11-6.42-1.97-.37-1.48Z" fill="#bf9788"/><path id="Maw-Ti-Ngar-1" d="M192.94,345.52l9.01,5.56-1.73,3.21-9.26-5.07,1.98-3.7Z" fill="#bf9788"/><path id="Thet-Kae-Pyin-1" d="M189.36,374.28l.99-2.34-1.98-1.48,1.61-1.48,3.95,3.08,2.71-1.23v-2.23l7.04-.61,2.34,3.8199-9.62,5.81-7.04-3.34Z" fill="#bf9788"/><path id="Thae-Cheung-1" d="M221.58,427.86l2.34-.87,1.36,2.35,2.1-.99,2.35,1.85-1.86,5.68-2.47-.37-3.82-7.65Z" fill="#bf9788"/><path id="Dar-Paing-1" d="M179.98,401.93l-2.47-.98.86-1.98-5.06-5.8,7.78-7.78,5.55,1.11.5,3.09-4.82,5.06,1.85,1.85-4.19,5.4301Z" fill="#bf9788"/><path id="Khaung-Doke-Khar-2-1" d="M161.21,374.28l-9.75-7.4,3.09-3.71-3.33-2.96,3.2-2.84,3.21,3.21-1.48,1.85-1.48,3.21,6.54,5.68-.61.99,1.48,1.23-.87.74Z" fill="#bf9788"/></g><rect x="13.1741" y="236.955" width="234.439" height="252.32" fill="none" stroke="#fff" stroke-miterlimit="10" stroke-width="3"/></g></svg>